<svg width="277" height="36" viewBox="0 0 277 36" fill="none" xmlns="http://www.w3.org/2000/svg">
<g id="Logo">
<g id="noun_Running_1473810">
<g id="Group">
<path id="Path" d="M242.531 30.9273C242.531 30.4364 242.202 30.1091 241.707 30.1091H227.363C226.869 30.1091 226.539 30.4364 226.539 30.9273C226.539 31.4182 226.869 31.7455 227.363 31.7455H241.707C242.202 31.7455 242.531 31.3364 242.531 30.9273Z" fill="white"/>
<path id="Path_2" d="M230.661 34.2H229.012C228.517 34.2 228.188 34.5273 228.188 35.0182C228.188 35.5091 228.517 35.8364 229.012 35.8364H230.661C231.155 35.8364 231.485 35.5091 231.485 35.0182C231.485 34.5273 231.155 34.2 230.661 34.2Z" fill="white"/>
<path id="Path_3" d="M234.535 26.8364C234.535 26.3455 234.206 26.0182 233.711 26.0182H225.715C225.22 26.0182 224.89 26.3455 224.89 26.8364C224.89 27.3273 225.22 27.6545 225.715 27.6545H233.711C234.206 27.6545 234.535 27.2455 234.535 26.8364Z" fill="white"/>
<path id="Shape" fill-rule="evenodd" clip-rule="evenodd" d="M275.506 28.2273C275.258 27.7364 274.764 27.3273 274.269 27.0818L268.004 24.7091L265.448 23.8091C264.707 23.4818 264.047 22.9909 263.635 22.3364L261.492 18.8182C261.904 18.7364 262.151 18.4091 262.151 18C262.151 17.5091 261.821 17.1818 261.327 17.1818H260.502L259.513 15.5455C259.925 15.4636 260.173 15.1364 260.173 14.7273C260.173 14.2364 259.843 13.9091 259.348 13.9091H258.524L257.7 12.6C258.029 12.5182 258.277 12.1909 258.277 11.8636C258.277 11.3727 257.947 11.0455 257.452 11.0455H256.71L255.639 9.32727C255.639 9.32727 255.639 9.24545 255.556 9.24545C254.567 8.1 253.248 7.52727 251.847 7.69091C250.61 7.85455 249.621 8.59091 249.209 9.49091C249.126 9.73636 249.126 9.98182 249.291 10.2273L256.133 21.8455C256.216 22.0091 256.381 22.1727 256.545 22.1727L264.954 25.3636H265.036L267.509 26.2636L273.692 28.6364C273.857 28.7182 274.022 28.8 274.104 29.0455C274.434 29.7 274.434 30.3545 274.022 31.0091H260.585C259.76 31.0091 258.936 30.7636 258.277 30.2727L235.277 13.3364C235.277 13.3364 235.607 13.1727 236.019 12.6C236.431 12.0273 236.596 11.2909 236.596 10.5545L235.854 3.68182L236.844 2.12727C237.091 1.8 237.585 1.71818 237.915 1.96364C237.933 1.98166 237.956 2.00277 237.982 2.02794C238.315 2.34557 239.327 3.30964 241.542 6.87273C242.779 8.67273 244.757 9.98182 246.983 10.3091C247.395 10.3909 247.89 10.0636 247.972 9.65455C248.055 9.24545 247.725 8.75455 247.313 8.67273C245.582 8.34546 243.933 7.36364 242.944 5.89091C240.059 1.47273 239.234 0.818182 238.904 0.572727C237.833 -0.163636 236.349 0.0818182 235.525 1.14545L230.496 9.08182C230.166 9.57273 230.084 10.1455 230.166 10.7182C229.672 10.8818 229.177 11.1273 228.93 11.6182L227.611 13.6636C226.869 14.7273 227.199 16.2 228.27 16.9364C228.911 17.4309 230.166 18.2305 231.983 19.3878C232.27 19.5707 232.572 19.7626 232.887 19.9636L232.887 19.9636C233.052 20.0455 233.216 20.1273 233.299 20.1273C233.546 20.1273 233.793 19.9636 233.958 19.7182C234.206 19.3091 234.123 18.8182 233.711 18.5727C233.004 18.1047 232.363 17.6863 231.794 17.3149C230.573 16.5173 229.683 15.9362 229.177 15.5455C228.847 15.3 228.765 14.8909 229.012 14.4818L230.249 12.6C230.496 12.2727 230.991 12.1909 231.32 12.4364L257.205 31.5818C258.194 32.3182 259.348 32.6455 260.502 32.6455H271.878C270.147 33.4636 267.757 34.2 265.696 34.2H262.811H260.42C259.019 34.2 257.617 33.7909 256.463 33.0545C251.682 30.0273 242.779 24.3818 236.266 20.2091C235.854 19.9636 235.36 20.0455 235.112 20.4545C234.865 20.8636 234.948 21.3545 235.36 21.6C239.538 24.2927 244.716 27.5879 249.154 30.4125C251.459 31.8793 253.564 33.2191 255.227 34.2818H233.958C233.464 34.2818 233.134 34.6091 233.134 35.1C233.134 35.5909 233.464 35.9182 233.958 35.9182H260.42H262.811H265.613C268.993 35.9182 273.857 34.1182 275.093 32.4C276.165 30.9273 276.247 29.5364 275.506 28.2273ZM257.287 20.8636L250.857 9.98182C251.105 9.73636 251.517 9.49091 252.012 9.40909C252.506 9.32727 253.413 9.40909 254.237 10.3091L254.732 11.1273H253.99C253.495 11.1273 253.166 11.4545 253.166 11.9455C253.166 12.4364 253.495 12.7636 253.99 12.7636H255.721L256.545 14.0727H255.886C255.391 14.0727 255.062 14.4 255.062 14.8909C255.062 15.3818 255.391 15.7091 255.886 15.7091H257.535L258.524 17.2636H257.864C257.37 17.2636 257.04 17.5909 257.04 18.0818C257.04 18.5727 257.37 18.9 257.864 18.9H259.513L261.821 22.5L257.287 20.8636ZM234.453 5.97273L231.897 9.98182C231.733 10.3091 231.815 10.7182 232.31 11.1273C233.052 11.7 233.464 11.9455 233.464 11.9455C234.15 12.4751 234.483 11.9552 234.66 11.6799C234.674 11.6575 234.688 11.6367 234.7 11.6182C234.865 11.3727 234.948 11.0455 234.948 10.7182L234.453 5.97273Z" fill="white"/>
</g>
</g>
<g id="ROCKETSHOES" style="mix-blend-mode:color-dodge">
<path fill-rule="evenodd" clip-rule="evenodd" d="M58.0957 27.7783C58.0273 29.2627 57.627 30.5737 56.8945 31.7114C56.1621 32.8491 55.1343 33.7305 53.811 34.3555C52.4878 34.9805 50.9766 35.293 49.2773 35.293C46.4746 35.293 44.2676 34.3799 42.6562 32.5537C41.0449 30.7275 40.2393 28.1494 40.2393 24.8193V23.7646C40.2393 21.6748 40.603 19.8462 41.3306 18.2788C42.0581 16.7114 43.1055 15.5005 44.4727 14.646C45.8399 13.7915 47.4219 13.3643 49.2188 13.3643C51.8067 13.3643 53.8867 14.0454 55.459 15.4077C57.0313 16.77 57.9248 18.6474 58.1396 21.04H53.0127C52.9736 19.7412 52.6465 18.8086 52.0312 18.2422C51.416 17.6758 50.4785 17.3926 49.2188 17.3926C47.9394 17.3926 47.002 17.8711 46.4062 18.8281C45.8105 19.7852 45.498 21.3135 45.4688 23.4131V24.9219C45.4688 27.1973 45.7544 28.8232 46.3257 29.7998C46.897 30.7764 47.8809 31.2646 49.2773 31.2646C50.459 31.2646 51.3623 30.9863 51.9873 30.4297C52.6123 29.873 52.9443 28.9893 52.9834 27.7783H58.0957ZM38.1885 24.7754C38.1885 26.8555 37.8027 28.6963 37.0312 30.2979C36.2598 31.8994 35.1636 33.1323 33.7427 33.9966C32.3218 34.8608 30.7031 35.293 28.8867 35.293C27.0703 35.293 25.459 34.8755 24.0527 34.0405C22.6465 33.2056 21.5503 32.0117 20.7642 30.459C19.978 28.9062 19.5654 27.124 19.5264 25.1123V23.9111C19.5264 21.8213 19.9097 19.978 20.6763 18.3813C21.4429 16.7847 22.5415 15.5518 23.9722 14.6826C25.4028 13.8135 27.0312 13.3789 28.8574 13.3789C30.6641 13.3789 32.2754 13.8086 33.6914 14.668C35.1074 15.5273 36.2085 16.7505 36.9946 18.3374C37.7808 19.9243 38.1787 21.7432 38.1885 23.7939V24.7754ZM5.69824 27.4707H8.48145L12.2461 35H17.7539V34.7803L13.3008 26.1816C14.5801 25.5762 15.52 24.7852 16.1206 23.8086C16.7212 22.832 17.0215 21.6016 17.0215 20.1172C17.0215 18.0664 16.3086 16.4795 14.8828 15.3564C13.457 14.2334 11.4795 13.6719 8.9502 13.6719H0.556641V35H5.69824V27.4707ZM8.9502 23.501H5.69824V17.6416H8.9502C9.917 17.6416 10.6494 17.9028 11.1475 18.4253C11.6455 18.9478 11.8945 19.668 11.8945 20.5859C11.8945 21.5039 11.648 22.2192 11.1548 22.7319C10.6616 23.2446 9.92676 23.501 8.9502 23.501ZM31.897 19.0552C32.605 20.1538 32.959 21.7627 32.959 23.8818V24.8633C32.9492 26.9336 32.5928 28.5205 31.8896 29.624C31.1865 30.7275 30.1856 31.2793 28.8867 31.2793C27.5195 31.2793 26.4893 30.7178 25.7959 29.5947C25.1025 28.4717 24.7559 26.8652 24.7559 24.7754L24.7705 23.208C24.917 19.3408 26.2793 17.4072 28.8574 17.4072C30.1758 17.4072 31.189 17.9565 31.897 19.0552ZM65.6689 29.375L67.7783 27.0605L72.3193 35H78.4131L71.2061 23.1055L78.4131 13.6719H72.0557L67.4561 20.3662L65.6689 23.0762V13.6719H60.5273V35H65.6689V29.375ZM92.9443 25.9619H84.8584V31.0449H94.4092V35H79.7168V13.6719H94.4385V17.6416H84.8584V22.1387H92.9443V25.9619ZM107.139 17.6416H113.54V13.6719H95.7129V17.6416H101.997V35H107.139V17.6416ZM126.475 29.3311C126.475 28.5791 126.208 27.9932 125.676 27.5732C125.144 27.1533 124.209 26.7188 122.871 26.2695C121.533 25.8203 120.439 25.3857 119.59 24.9658C116.826 23.6084 115.444 21.7432 115.444 19.3701C115.444 18.1885 115.789 17.146 116.477 16.2427C117.166 15.3394 118.14 14.6362 119.399 14.1333C120.659 13.6304 122.075 13.3789 123.647 13.3789C125.181 13.3789 126.555 13.6523 127.771 14.1992C128.987 14.7461 129.932 15.5249 130.605 16.5356C131.279 17.5464 131.616 18.7012 131.616 20H126.489C126.489 19.1309 126.223 18.457 125.691 17.9785C125.159 17.5 124.438 17.2607 123.53 17.2607C122.612 17.2607 121.887 17.4634 121.355 17.8687C120.823 18.2739 120.557 18.7891 120.557 19.4141C120.557 19.9609 120.85 20.4565 121.436 20.9009C122.021 21.3452 123.052 21.8042 124.526 22.2778C126.001 22.7515 127.212 23.2617 128.159 23.8086C130.464 25.1367 131.616 26.9678 131.616 29.3018C131.616 31.167 130.913 32.6318 129.507 33.6963C128.101 34.7607 126.172 35.293 123.721 35.293C121.992 35.293 120.427 34.9829 119.026 34.3628C117.625 33.7427 116.57 32.8931 115.862 31.814C115.154 30.7349 114.8 29.4922 114.8 28.0859H119.956C119.956 29.2285 120.251 30.0708 120.842 30.6128C121.433 31.1548 122.393 31.4258 123.721 31.4258C124.57 31.4258 125.242 31.2427 125.735 30.8765C126.228 30.5103 126.475 29.9951 126.475 29.3311ZM146.968 35H152.08V13.6719H146.968V22.1387H139.395V13.6719H134.253V35H139.395V26.0938H146.968V35ZM173.394 24.7754C173.394 26.8555 173.008 28.6963 172.236 30.2979C171.465 31.8994 170.369 33.1323 168.948 33.9966C167.527 34.8608 165.908 35.293 164.092 35.293C162.275 35.293 160.664 34.8755 159.258 34.0405C157.852 33.2056 156.755 32.0117 155.969 30.459C155.183 28.9062 154.771 27.124 154.731 25.1123V23.9111C154.731 21.8213 155.115 19.978 155.881 18.3813C156.648 16.7847 157.747 15.5518 159.177 14.6826C160.608 13.8135 162.236 13.3789 164.062 13.3789C165.869 13.3789 167.48 13.8086 168.896 14.668C170.312 15.5273 171.414 16.7505 172.2 18.3374C172.986 19.9243 173.384 21.7432 173.394 23.7939V24.7754ZM167.102 19.0552C167.81 20.1538 168.164 21.7627 168.164 23.8818V24.8633C168.154 26.9336 167.798 28.5205 167.095 29.624C166.392 30.7275 165.391 31.2793 164.092 31.2793C162.725 31.2793 161.694 30.7178 161.001 29.5947C160.308 28.4717 159.961 26.8652 159.961 24.7754L159.976 23.208C160.122 19.3408 161.484 17.4072 164.062 17.4072C165.381 17.4072 166.394 17.9565 167.102 19.0552ZM189.272 25.9619H181.187V31.0449H190.737V35H176.045V13.6719H190.767V17.6416H181.187V22.1387H189.272V25.9619ZM203.035 27.5732C203.567 27.9932 203.833 28.5791 203.833 29.3311C203.833 29.9951 203.586 30.5103 203.093 30.8765C202.6 31.2427 201.929 31.4258 201.079 31.4258C199.751 31.4258 198.792 31.1548 198.201 30.6128C197.61 30.0708 197.314 29.2285 197.314 28.0859H192.158C192.158 29.4922 192.512 30.7349 193.22 31.814C193.928 32.8931 194.983 33.7427 196.384 34.3628C197.786 34.9829 199.351 35.293 201.079 35.293C203.53 35.293 205.459 34.7607 206.865 33.6963C208.271 32.6318 208.975 31.167 208.975 29.3018C208.975 26.9678 207.822 25.1367 205.518 23.8086C204.57 23.2617 203.359 22.7515 201.885 22.2778C200.41 21.8042 199.38 21.3452 198.794 20.9009C198.208 20.4565 197.915 19.9609 197.915 19.4141C197.915 18.7891 198.181 18.2739 198.713 17.8687C199.246 17.4634 199.971 17.2607 200.889 17.2607C201.797 17.2607 202.517 17.5 203.049 17.9785C203.582 18.457 203.848 19.1309 203.848 20H208.975C208.975 18.7012 208.638 17.5464 207.964 16.5356C207.29 15.5249 206.345 14.7461 205.129 14.1992C203.914 13.6523 202.539 13.3789 201.006 13.3789C199.434 13.3789 198.018 13.6304 196.758 14.1333C195.498 14.6362 194.524 15.3394 193.835 16.2427C193.147 17.146 192.803 18.1885 192.803 19.3701C192.803 21.7432 194.185 23.6084 196.948 24.9658C197.798 25.3857 198.892 25.8203 200.229 26.2695C201.567 26.7188 202.502 27.1533 203.035 27.5732Z" fill="white"/>
<path d="M58.0957 27.7783L58.5952 27.8013L58.6193 27.2783H58.0957V27.7783ZM41.3306 18.2788L41.7841 18.4893L41.7841 18.4893L41.3306 18.2788ZM55.459 15.4077L55.1316 15.7856L55.1316 15.7856L55.459 15.4077ZM58.1396 21.04V21.54H58.6866L58.6376 20.9953L58.1396 21.04ZM53.0127 21.04L52.5129 21.0551L52.5275 21.54H53.0127V21.04ZM45.4688 23.4131L44.9688 23.4061V23.4131H45.4688ZM46.3257 29.7998L46.7573 29.5473L46.7573 29.5473L46.3257 29.7998ZM52.9834 27.7783V27.2783H52.4993L52.4837 27.7622L52.9834 27.7783ZM19.5264 25.1123L19.0263 25.1123L19.0265 25.122L19.5264 25.1123ZM23.9722 14.6826L24.2318 15.1099L24.2318 15.1099L23.9722 14.6826ZM38.1885 23.7939L38.6885 23.7939L38.6885 23.7916L38.1885 23.7939ZM8.48145 27.4707L8.92866 27.2471L8.79046 26.9707H8.48145V27.4707ZM5.69824 27.4707V26.9707H5.19824V27.4707H5.69824ZM12.2461 35L11.7989 35.2236L11.9371 35.5H12.2461V35ZM17.7539 35V35.5H18.2539V35H17.7539ZM17.7539 34.7803H18.2539V34.6585L18.1979 34.5503L17.7539 34.7803ZM13.3008 26.1816L13.0869 25.7297L12.6185 25.9514L12.8568 26.4116L13.3008 26.1816ZM16.1206 23.8086L15.6947 23.5467L15.6947 23.5467L16.1206 23.8086ZM14.8828 15.3564L15.1922 14.9637L15.1922 14.9637L14.8828 15.3564ZM0.556641 13.6719V13.1719H0.0566406V13.6719H0.556641ZM0.556641 35H0.0566406V35.5H0.556641V35ZM5.69824 35V35.5H6.19824V35H5.69824ZM5.69824 23.501H5.19824V24.001H5.69824V23.501ZM5.69824 17.6416V17.1416H5.19824V17.6416H5.69824ZM32.959 24.8633L33.459 24.8656V24.8633H32.959ZM24.7559 24.7754L24.2559 24.7707V24.7754H24.7559ZM24.7705 23.208L24.2709 23.1891L24.2706 23.1962L24.2705 23.2033L24.7705 23.208ZM67.7783 27.0605L68.2123 26.8123L67.8714 26.2162L67.4088 26.7237L67.7783 27.0605ZM65.6689 29.375L65.2994 29.0382L65.1689 29.1813V29.375H65.6689ZM72.3193 35L71.8853 35.2482L72.0293 35.5H72.3193V35ZM78.4131 35V35.5H79.3007L78.8407 34.7409L78.4131 35ZM71.2061 23.1055L70.8087 22.8019L70.6017 23.0729L70.7784 23.3646L71.2061 23.1055ZM78.4131 13.6719L78.8104 13.9754L79.4243 13.1719H78.4131V13.6719ZM72.0557 13.6719V13.1719H71.7926L71.6436 13.3887L72.0557 13.6719ZM67.4561 20.3662L67.0439 20.083L67.0386 20.0909L67.4561 20.3662ZM65.6689 23.0762H65.1689V24.7426L66.0864 23.3514L65.6689 23.0762ZM65.6689 13.6719H66.1689V13.1719H65.6689V13.6719ZM60.5273 13.6719V13.1719H60.0273V13.6719H60.5273ZM60.5273 35H60.0273V35.5H60.5273V35ZM65.6689 35V35.5H66.1689V35H65.6689ZM84.8584 25.9619V25.4619H84.3584V25.9619H84.8584ZM92.9443 25.9619V26.4619H93.4443V25.9619H92.9443ZM84.8584 31.0449H84.3584V31.5449H84.8584V31.0449ZM94.4092 31.0449H94.9092V30.5449H94.4092V31.0449ZM94.4092 35V35.5H94.9092V35H94.4092ZM79.7168 35H79.2168V35.5H79.7168V35ZM79.7168 13.6719V13.1719H79.2168V13.6719H79.7168ZM94.4385 13.6719H94.9385V13.1719H94.4385V13.6719ZM94.4385 17.6416V18.1416H94.9385V17.6416H94.4385ZM84.8584 17.6416V17.1416H84.3584V17.6416H84.8584ZM84.8584 22.1387H84.3584V22.6387H84.8584V22.1387ZM92.9443 22.1387H93.4443V21.6387H92.9443V22.1387ZM113.54 17.6416V18.1416H114.04V17.6416H113.54ZM107.139 17.6416V17.1416H106.639V17.6416H107.139ZM113.54 13.6719H114.04V13.1719H113.54V13.6719ZM95.7129 13.6719V13.1719H95.2129V13.6719H95.7129ZM95.7129 17.6416H95.2129V18.1416H95.7129V17.6416ZM101.997 17.6416H102.497V17.1416H101.997V17.6416ZM101.997 35H101.497V35.5H101.997V35ZM107.139 35V35.5H107.639V35H107.139ZM119.59 24.9658L119.811 24.5176L119.81 24.517L119.59 24.9658ZM127.771 14.1992L127.976 13.7432L127.976 13.7432L127.771 14.1992ZM130.605 16.5356L130.189 16.813L130.189 16.813L130.605 16.5356ZM131.616 20V20.5H132.116V20H131.616ZM126.489 20H125.989V20.5H126.489V20ZM128.159 23.8086L127.909 24.2416L127.91 24.2418L128.159 23.8086ZM129.507 33.6963L129.809 34.095L129.809 34.095L129.507 33.6963ZM114.8 28.0859V27.5859H114.3V28.0859H114.8ZM119.956 28.0859H120.456V27.5859H119.956V28.0859ZM152.08 35V35.5H152.58V35H152.08ZM146.968 35H146.468V35.5H146.968V35ZM152.08 13.6719H152.58V13.1719H152.08V13.6719ZM146.968 13.6719V13.1719H146.468V13.6719H146.968ZM146.968 22.1387V22.6387H147.468V22.1387H146.968ZM139.395 22.1387H138.895V22.6387H139.395V22.1387ZM139.395 13.6719H139.895V13.1719H139.395V13.6719ZM134.253 13.6719V13.1719H133.753V13.6719H134.253ZM134.253 35H133.753V35.5H134.253V35ZM139.395 35V35.5H139.895V35H139.395ZM139.395 26.0938V25.5938H138.895V26.0938H139.395ZM146.968 26.0938H147.468V25.5938H146.968V26.0938ZM154.731 25.1123L154.231 25.1123L154.232 25.122L154.731 25.1123ZM159.177 14.6826L159.437 15.1099L159.437 15.1099L159.177 14.6826ZM173.394 23.7939L173.894 23.7939L173.894 23.7916L173.394 23.7939ZM168.164 24.8633L168.664 24.8656V24.8633H168.164ZM159.961 24.7754L159.461 24.7707V24.7754H159.961ZM159.976 23.208L159.476 23.1891L159.476 23.1962L159.476 23.2033L159.976 23.208ZM181.187 25.9619V25.4619H180.687V25.9619H181.187ZM189.272 25.9619V26.4619H189.772V25.9619H189.272ZM181.187 31.0449H180.687V31.5449H181.187V31.0449ZM190.737 31.0449H191.237V30.5449H190.737V31.0449ZM190.737 35V35.5H191.237V35H190.737ZM176.045 35H175.545V35.5H176.045V35ZM176.045 13.6719V13.1719H175.545V13.6719H176.045ZM190.767 13.6719H191.267V13.1719H190.767V13.6719ZM190.767 17.6416V18.1416H191.267V17.6416H190.767ZM181.187 17.6416V17.1416H180.687V17.6416H181.187ZM181.187 22.1387H180.687V22.6387H181.187V22.1387ZM189.272 22.1387H189.772V21.6387H189.272V22.1387ZM197.314 28.0859H197.814V27.5859H197.314V28.0859ZM192.158 28.0859V27.5859H191.658V28.0859H192.158ZM205.518 23.8086L205.268 24.2416L205.268 24.2418L205.518 23.8086ZM203.848 20H203.348V20.5H203.848V20ZM208.975 20V20.5H209.475V20H208.975ZM207.964 16.5356L207.548 16.813L207.548 16.813L207.964 16.5356ZM196.948 24.9658L197.17 24.5176L197.169 24.517L196.948 24.9658ZM57.3149 31.9821C58.0997 30.7631 58.5232 29.3649 58.5952 27.8013L57.5962 27.7553C57.5315 29.1605 57.1542 30.3844 56.4741 31.4408L57.3149 31.9821ZM54.0246 34.8076C55.4252 34.146 56.5278 33.2048 57.3149 31.9821L56.4741 31.4408C55.7964 32.4934 54.8433 33.3149 53.5975 33.9034L54.0246 34.8076ZM49.2773 35.793C51.0386 35.793 52.6246 35.4688 54.0246 34.8076L53.5975 33.9034C52.351 34.4921 50.9146 34.793 49.2773 34.793V35.793ZM42.2813 32.8845C44.0024 34.835 46.3551 35.793 49.2773 35.793V34.793C46.5941 34.793 44.5328 33.9248 43.0312 32.2229L42.2813 32.8845ZM39.7393 24.8193C39.7393 28.2263 40.5639 30.9381 42.2813 32.8845L43.0312 32.2229C41.5259 30.5169 40.7393 28.0726 40.7393 24.8193H39.7393ZM39.7393 23.7646V24.8193H40.7393V23.7646H39.7393ZM40.877 18.0683C40.1132 19.714 39.7393 21.617 39.7393 23.7646H40.7393C40.7393 21.7326 41.0929 19.9784 41.7841 18.4893L40.877 18.0683ZM44.2077 14.222C42.7523 15.1316 41.6423 16.4196 40.877 18.0683L41.7841 18.4893C42.4739 17.0033 43.4586 15.8694 44.7377 15.07L44.2077 14.222ZM49.2188 12.8643C47.3392 12.8643 45.6632 13.3123 44.2077 14.222L44.7377 15.07C46.0165 14.2707 47.5045 13.8643 49.2188 13.8643V12.8643ZM55.7864 15.0298C54.1026 13.5709 51.8965 12.8643 49.2188 12.8643V13.8643C51.7168 13.8643 53.6708 14.5199 55.1316 15.7856L55.7864 15.0298ZM58.6376 20.9953C58.4132 18.4953 57.4717 16.4901 55.7864 15.0298L55.1316 15.7856C56.5908 17.05 57.4365 18.7996 57.6417 21.0848L58.6376 20.9953ZM53.0127 21.54H58.1396V20.54H53.0127V21.54ZM51.6926 18.61C52.1657 19.0456 52.4757 19.8179 52.5129 21.0551L53.5125 21.025C53.4716 19.6645 53.1273 18.5716 52.3699 17.8743L51.6926 18.61ZM49.2188 17.8926C50.415 17.8926 51.2069 18.1629 51.6926 18.61L52.3699 17.8743C51.6252 17.1887 50.5421 16.8926 49.2188 16.8926V17.8926ZM46.8307 19.0923C47.3215 18.3039 48.0846 17.8926 49.2188 17.8926V16.8926C47.7943 16.8926 46.6824 17.4382 45.9818 18.5639L46.8307 19.0923ZM45.9687 23.4201C45.9977 21.3449 46.3091 19.9304 46.8307 19.0923L45.9818 18.5639C45.312 19.6399 44.9984 21.282 44.9688 23.4061L45.9687 23.4201ZM45.9688 24.9219V23.4131H44.9688V24.9219H45.9688ZM46.7573 29.5473C46.2571 28.6923 45.9688 27.1816 45.9688 24.9219H44.9688C44.9688 27.2129 45.2517 28.9541 45.8941 30.0523L46.7573 29.5473ZM49.2773 30.7646C48.0099 30.7646 47.2168 30.3329 46.7573 29.5473L45.8941 30.0523C46.5772 31.2199 47.7518 31.7646 49.2773 31.7646V30.7646ZM51.6548 30.0563C51.1529 30.5032 50.3866 30.7646 49.2773 30.7646V31.7646C50.5314 31.7646 51.5717 31.4694 52.3198 30.8031L51.6548 30.0563ZM52.4837 27.7622C52.447 28.8981 52.1389 29.6251 51.6548 30.0563L52.3198 30.8031C53.0857 30.121 53.4417 29.0804 53.4831 27.7944L52.4837 27.7622ZM58.0957 27.2783H52.9834V28.2783H58.0957V27.2783ZM37.4817 30.5148C38.2909 28.835 38.6885 26.9179 38.6885 24.7754H37.6885C37.6885 26.7931 37.3146 28.5576 36.5808 30.0809L37.4817 30.5148ZM34.0025 34.4238C35.5117 33.5058 36.6713 32.1971 37.4817 30.5148L36.5808 30.0809C35.8482 31.6017 34.8155 32.7588 33.4828 33.5694L34.0025 34.4238ZM28.8867 35.793C30.786 35.793 32.4962 35.34 34.0025 34.4238L33.4828 33.5694C32.1474 34.3817 30.6202 34.793 28.8867 34.793V35.793ZM23.7975 34.4705C25.2893 35.3562 26.9907 35.793 28.8867 35.793V34.793C27.1499 34.793 25.6287 34.3948 24.308 33.6106L23.7975 34.4705ZM20.3181 30.6848C21.1443 32.3167 22.3042 33.5838 23.7975 34.4705L24.308 33.6106C22.9888 32.8273 21.9563 31.7068 21.2102 30.2331L20.3181 30.6848ZM19.0265 25.122C19.0668 27.1972 19.493 29.0553 20.3181 30.6848L21.2102 30.2331C20.463 28.7572 20.0641 27.0509 20.0263 25.1026L19.0265 25.122ZM19.0264 23.9111V25.1123H20.0264V23.9111H19.0264ZM20.2255 18.1649C19.4212 19.8403 19.0264 21.7597 19.0264 23.9111H20.0264C20.0264 21.8828 20.3982 20.1158 21.127 18.5978L20.2255 18.1649ZM23.7126 14.2553C22.1942 15.1777 21.0315 16.4862 20.2255 18.1649L21.127 18.5978C21.8542 17.0831 22.8888 15.9258 24.2318 15.1099L23.7126 14.2553ZM28.8574 12.8789C26.9483 12.8789 25.2285 13.3343 23.7126 14.2553L24.2318 15.1099C25.5771 14.2926 27.1142 13.8789 28.8574 13.8789V12.8789ZM33.9508 14.2405C32.4496 13.3294 30.747 12.8789 28.8574 12.8789V13.8789C30.5812 13.8789 32.1012 14.2878 33.432 15.0954L33.9508 14.2405ZM37.4427 18.1155C36.6175 16.4497 35.4536 15.1526 33.9508 14.2405L33.432 15.0954C34.7613 15.9021 35.7995 17.0513 36.5466 18.5594L37.4427 18.1155ZM38.6885 23.7916C38.6784 21.6766 38.2676 19.7807 37.4427 18.1155L36.5466 18.5594C37.2939 20.068 37.679 21.8097 37.6885 23.7963L38.6885 23.7916ZM38.6885 24.7754V23.7939H37.6885V24.7754H38.6885ZM8.48145 26.9707H5.69824V27.9707H8.48145V26.9707ZM12.6933 34.7764L8.92866 27.2471L8.03423 27.6943L11.7989 35.2236L12.6933 34.7764ZM17.7539 34.5H12.2461V35.5H17.7539V34.5ZM17.2539 34.7803V35H18.2539V34.7803H17.2539ZM12.8568 26.4116L17.3099 35.0102L18.1979 34.5503L13.7448 25.9517L12.8568 26.4116ZM15.6947 23.5467C15.1556 24.4232 14.2992 25.1559 13.0869 25.7297L13.5147 26.6336C14.861 25.9964 15.8844 25.1471 16.5465 24.0705L15.6947 23.5467ZM16.5215 20.1172C16.5215 21.5359 16.2345 22.6689 15.6947 23.5467L16.5465 24.0705C17.2079 22.9951 17.5215 21.6673 17.5215 20.1172H16.5215ZM14.5734 15.7492C15.8622 16.7643 16.5215 18.197 16.5215 20.1172H17.5215C17.5215 17.9358 16.7551 16.1947 15.1922 14.9637L14.5734 15.7492ZM8.9502 14.1719C11.4107 14.1719 13.2648 14.7184 14.5734 15.7492L15.1922 14.9637C13.6493 13.7484 11.5483 13.1719 8.9502 13.1719V14.1719ZM0.556641 14.1719H8.9502V13.1719H0.556641V14.1719ZM1.05664 35V13.6719H0.0566406V35H1.05664ZM5.69824 34.5H0.556641V35.5H5.69824V34.5ZM5.19824 27.4707V35H6.19824V27.4707H5.19824ZM5.69824 24.001H8.9502V23.001H5.69824V24.001ZM5.19824 17.6416V23.501H6.19824V17.6416H5.19824ZM8.9502 17.1416H5.69824V18.1416H8.9502V17.1416ZM11.5094 18.0803C10.8882 17.4286 10.0055 17.1416 8.9502 17.1416V18.1416C9.82848 18.1416 10.4106 18.377 10.7856 18.7703L11.5094 18.0803ZM12.3945 20.5859C12.3945 19.5759 12.1183 18.7191 11.5094 18.0803L10.7856 18.7703C11.1727 19.1764 11.3945 19.76 11.3945 20.5859H12.3945ZM11.5151 23.0786C12.1217 22.448 12.3945 21.5942 12.3945 20.5859H11.3945C11.3945 21.4137 11.1742 21.9905 10.7944 22.3853L11.5151 23.0786ZM8.9502 24.001C10.0106 24.001 10.8968 23.7214 11.5151 23.0786L10.7944 22.3853C10.4264 22.7679 9.84292 23.001 8.9502 23.001V24.001ZM33.459 23.8818C33.459 21.7207 33.1004 19.9996 32.3173 18.7843L31.4767 19.326C32.1096 20.3081 32.459 21.8047 32.459 23.8818H33.459ZM33.459 24.8633V23.8818H32.459V24.8633H33.459ZM32.3113 29.8927C33.0867 28.6758 33.449 26.9802 33.459 24.8656L32.459 24.8609C32.4494 26.8871 32.0989 28.3652 31.468 29.3553L32.3113 29.8927ZM28.8867 31.7793C30.3579 31.7793 31.5172 31.139 32.3113 29.8927L31.468 29.3553C30.8558 30.3161 30.0132 30.7793 28.8867 30.7793V31.7793ZM25.3705 29.8574C26.1588 31.1343 27.3537 31.7793 28.8867 31.7793V30.7793C27.6853 30.7793 26.8197 30.3013 26.2213 29.3321L25.3705 29.8574ZM24.2559 24.7754C24.2559 26.9087 24.6077 28.6219 25.3705 29.8574L26.2213 29.3321C25.5974 28.3214 25.2559 26.8218 25.2559 24.7754H24.2559ZM24.2705 23.2033L24.2559 24.7707L25.2558 24.7801L25.2705 23.2127L24.2705 23.2033ZM28.8574 16.9072C27.4229 16.9072 26.2776 17.4563 25.4934 18.5694C24.7314 19.6509 24.3457 21.2144 24.2709 23.1891L25.2701 23.2269C25.3418 21.3344 25.7105 19.9975 26.3108 19.1454C26.8889 18.3249 27.7138 17.9072 28.8574 17.9072V16.9072ZM32.3173 18.7843C31.5162 17.5413 30.3439 16.9072 28.8574 16.9072V17.9072C30.0076 17.9072 30.8617 18.3717 31.4767 19.326L32.3173 18.7843ZM67.4088 26.7237L65.2994 29.0382L66.0385 29.7118L68.1479 27.3973L67.4088 26.7237ZM72.7534 34.7518L68.2123 26.8123L67.3443 27.3088L71.8853 35.2482L72.7534 34.7518ZM78.4131 34.5H72.3193V35.5H78.4131V34.5ZM70.7784 23.3646L77.9855 35.2591L78.8407 34.7409L71.6337 22.8464L70.7784 23.3646ZM78.0158 13.3683L70.8087 22.8019L71.6034 23.409L78.8104 13.9754L78.0158 13.3683ZM72.0557 14.1719H78.4131V13.1719H72.0557V14.1719ZM67.8682 20.6494L72.4678 13.955L71.6436 13.3887L67.044 20.0831L67.8682 20.6494ZM66.0864 23.3514L67.8735 20.6415L67.0386 20.0909L65.2515 22.8009L66.0864 23.3514ZM65.1689 13.6719V23.0762H66.1689V13.6719H65.1689ZM60.5273 14.1719H65.6689V13.1719H60.5273V14.1719ZM61.0273 35V13.6719H60.0273V35H61.0273ZM65.6689 34.5H60.5273V35.5H65.6689V34.5ZM65.1689 29.375V35H66.1689V29.375H65.1689ZM84.8584 26.4619H92.9443V25.4619H84.8584V26.4619ZM85.3584 31.0449V25.9619H84.3584V31.0449H85.3584ZM94.4092 30.5449H84.8584V31.5449H94.4092V30.5449ZM94.9092 35V31.0449H93.9092V35H94.9092ZM79.7168 35.5H94.4092V34.5H79.7168V35.5ZM79.2168 13.6719V35H80.2168V13.6719H79.2168ZM94.4385 13.1719H79.7168V14.1719H94.4385V13.1719ZM94.9385 17.6416V13.6719H93.9385V17.6416H94.9385ZM84.8584 18.1416H94.4385V17.1416H84.8584V18.1416ZM85.3584 22.1387V17.6416H84.3584V22.1387H85.3584ZM92.9443 21.6387H84.8584V22.6387H92.9443V21.6387ZM93.4443 25.9619V22.1387H92.4443V25.9619H93.4443ZM113.54 17.1416H107.139V18.1416H113.54V17.1416ZM113.04 13.6719V17.6416H114.04V13.6719H113.04ZM95.7129 14.1719H113.54V13.1719H95.7129V14.1719ZM96.2129 17.6416V13.6719H95.2129V17.6416H96.2129ZM101.997 17.1416H95.7129V18.1416H101.997V17.1416ZM102.497 35V17.6416H101.497V35H102.497ZM107.139 34.5H101.997V35.5H107.139V34.5ZM106.639 17.6416V35H107.639V17.6416H106.639ZM125.367 27.9658C125.764 28.2797 125.975 28.7131 125.975 29.3311H126.975C126.975 28.4451 126.653 27.7067 125.986 27.1807L125.367 27.9658ZM122.712 26.7435C124.041 27.1899 124.906 27.6025 125.367 27.9658L125.986 27.1807C125.382 26.7041 124.377 26.2476 123.03 25.7955L122.712 26.7435ZM119.368 25.4141C120.245 25.8475 121.362 26.2902 122.712 26.7435L123.03 25.7955C121.704 25.3504 120.634 24.924 119.811 24.5176L119.368 25.4141ZM114.944 19.3701C114.944 21.9929 116.495 24.0028 119.369 25.4146L119.81 24.517C117.157 23.214 115.944 21.4934 115.944 19.3701H114.944ZM116.079 15.9396C115.322 16.9337 114.944 18.0837 114.944 19.3701H115.944C115.944 18.2932 116.255 17.3583 116.875 16.5458L116.079 15.9396ZM119.214 13.6689C117.887 14.1989 116.833 14.9514 116.079 15.9396L116.875 16.5458C117.499 15.7273 118.393 15.0736 119.585 14.5977L119.214 13.6689ZM123.647 12.8789C122.022 12.8789 120.541 13.139 119.214 13.6689L119.585 14.5977C120.777 14.1217 122.129 13.8789 123.647 13.8789V12.8789ZM127.976 13.7432C126.687 13.1633 125.241 12.8789 123.647 12.8789V13.8789C125.121 13.8789 126.424 14.1414 127.566 14.6552L127.976 13.7432ZM131.021 16.2583C130.291 15.1618 129.269 14.3248 127.976 13.7432L127.566 14.6552C128.705 15.1674 129.573 15.888 130.189 16.813L131.021 16.2583ZM132.116 20C132.116 18.6096 131.754 17.3569 131.021 16.2583L130.189 16.813C130.805 17.7358 131.116 18.7927 131.116 20H132.116ZM126.489 20.5H131.616V19.5H126.489V20.5ZM125.357 18.3503C125.761 18.714 125.989 19.2397 125.989 20H126.989C126.989 19.022 126.685 18.2001 126.025 17.6067L125.357 18.3503ZM123.53 17.7607C124.349 17.7607 124.939 17.9747 125.357 18.3503L126.025 17.6067C125.379 17.0253 124.528 16.7607 123.53 16.7607V17.7607ZM121.658 18.2665C122.076 17.9482 122.682 17.7607 123.53 17.7607V16.7607C122.543 16.7607 121.699 16.9785 121.052 17.4709L121.658 18.2665ZM121.057 19.4141C121.057 18.9575 121.24 18.5849 121.658 18.2665L121.052 17.4709C120.406 17.963 120.057 18.6207 120.057 19.4141H121.057ZM121.738 20.5025C121.23 20.1175 121.057 19.7543 121.057 19.4141H120.057C120.057 20.1676 120.469 20.7956 121.133 21.2993L121.738 20.5025ZM124.679 21.8018C123.212 21.3306 122.252 20.8923 121.738 20.5025L121.133 21.2993C121.791 21.7981 122.891 22.2778 124.373 22.7539L124.679 21.8018ZM128.409 23.3756C127.421 22.8053 126.175 22.2822 124.679 21.8018L124.373 22.7539C125.827 23.2208 127.002 23.7181 127.909 24.2416L128.409 23.3756ZM132.116 29.3018C132.116 26.7609 130.842 24.7778 128.409 23.3754L127.91 24.2418C130.085 25.4956 131.116 27.1746 131.116 29.3018H132.116ZM129.809 34.095C131.348 32.9298 132.116 31.3131 132.116 29.3018H131.116C131.116 31.0209 130.478 32.3338 129.205 33.2976L129.809 34.095ZM123.721 35.793C126.239 35.793 128.287 35.2465 129.809 34.095L129.205 33.2976C127.914 34.275 126.105 34.793 123.721 34.793V35.793ZM118.824 34.82C120.296 35.4717 121.931 35.793 123.721 35.793V34.793C122.053 34.793 120.558 34.4941 119.228 33.9056L118.824 34.82ZM115.444 32.0883C116.214 33.2619 117.351 34.1684 118.824 34.82L119.228 33.9056C117.898 33.317 116.926 32.5243 116.28 31.5397L115.444 32.0883ZM114.3 28.0859C114.3 29.5806 114.678 30.9204 115.444 32.0883L116.28 31.5397C115.63 30.5493 115.3 29.4038 115.3 28.0859H114.3ZM119.956 27.5859H114.8V28.5859H119.956V27.5859ZM121.18 30.2443C120.73 29.8316 120.456 29.1493 120.456 28.0859H119.456C119.456 29.3078 119.773 30.31 120.504 30.9812L121.18 30.2443ZM123.721 30.9258C122.441 30.9258 121.635 30.6611 121.18 30.2443L120.504 30.9812C121.232 31.6484 122.344 31.9258 123.721 31.9258V30.9258ZM125.437 30.475C125.057 30.7568 124.503 30.9258 123.721 30.9258V31.9258C124.637 31.9258 125.426 31.7286 126.033 31.2779L125.437 30.475ZM125.975 29.3311C125.975 29.8518 125.791 30.2117 125.437 30.475L126.033 31.2779C126.665 30.8088 126.975 30.1384 126.975 29.3311H125.975ZM152.08 34.5H146.968V35.5H152.08V34.5ZM151.58 13.6719V35H152.58V13.6719H151.58ZM146.968 14.1719H152.08V13.1719H146.968V14.1719ZM147.468 22.1387V13.6719H146.468V22.1387H147.468ZM139.395 22.6387H146.968V21.6387H139.395V22.6387ZM138.895 13.6719V22.1387H139.895V13.6719H138.895ZM134.253 14.1719H139.395V13.1719H134.253V14.1719ZM134.753 35V13.6719H133.753V35H134.753ZM139.395 34.5H134.253V35.5H139.395V34.5ZM138.895 26.0938V35H139.895V26.0938H138.895ZM146.968 25.5938H139.395V26.5938H146.968V25.5938ZM147.468 35V26.0938H146.468V35H147.468ZM172.687 30.5148C173.496 28.835 173.894 26.9179 173.894 24.7754H172.894C172.894 26.7931 172.52 28.5576 171.786 30.0809L172.687 30.5148ZM169.208 34.4238C170.717 33.5058 171.876 32.1971 172.687 30.5148L171.786 30.0809C171.053 31.6017 170.021 32.7588 168.688 33.5694L169.208 34.4238ZM164.092 35.793C165.991 35.793 167.701 35.34 169.208 34.4238L168.688 33.5694C167.352 34.3817 165.825 34.793 164.092 34.793V35.793ZM159.003 34.4705C160.494 35.3562 162.196 35.793 164.092 35.793V34.793C162.355 34.793 160.834 34.3948 159.513 33.6106L159.003 34.4705ZM155.523 30.6848C156.349 32.3167 157.509 33.5838 159.003 34.4705L159.513 33.6106C158.194 32.8273 157.161 31.7068 156.415 30.2331L155.523 30.6848ZM154.232 25.122C154.272 27.1972 154.698 29.0553 155.523 30.6848L156.415 30.2331C155.668 28.7572 155.269 27.0509 155.231 25.1026L154.232 25.122ZM154.231 23.9111V25.1123H155.231V23.9111H154.231ZM155.431 18.1649C154.626 19.8403 154.231 21.7597 154.231 23.9111H155.231C155.231 21.8828 155.603 20.1158 156.332 18.5978L155.431 18.1649ZM158.918 14.2553C157.399 15.1777 156.237 16.4862 155.431 18.1649L156.332 18.5978C157.059 17.0831 158.094 15.9258 159.437 15.1099L158.918 14.2553ZM164.062 12.8789C162.153 12.8789 160.434 13.3343 158.918 14.2553L159.437 15.1099C160.782 14.2926 162.319 13.8789 164.062 13.8789V12.8789ZM169.156 14.2405C167.655 13.3294 165.952 12.8789 164.062 12.8789V13.8789C165.786 13.8789 167.306 14.2878 168.637 15.0954L169.156 14.2405ZM172.648 18.1155C171.823 16.4497 170.659 15.1526 169.156 14.2405L168.637 15.0954C169.966 15.9021 171.005 17.0513 171.752 18.5594L172.648 18.1155ZM173.894 23.7916C173.883 21.6766 173.473 19.7807 172.648 18.1155L171.752 18.5594C172.499 20.068 172.884 21.8097 172.894 23.7963L173.894 23.7916ZM173.894 24.7754V23.7939H172.894V24.7754H173.894ZM168.664 23.8818C168.664 21.7207 168.305 19.9996 167.522 18.7843L166.682 19.326C167.315 20.3081 167.664 21.8047 167.664 23.8818H168.664ZM168.664 24.8633V23.8818H167.664V24.8633H168.664ZM167.516 29.8927C168.292 28.6758 168.654 26.9802 168.664 24.8656L167.664 24.8609C167.655 26.8871 167.304 28.3652 166.673 29.3553L167.516 29.8927ZM164.092 31.7793C165.563 31.7793 166.722 31.139 167.516 29.8927L166.673 29.3553C166.061 30.3161 165.218 30.7793 164.092 30.7793V31.7793ZM160.576 29.8574C161.364 31.1343 162.559 31.7793 164.092 31.7793V30.7793C162.89 30.7793 162.025 30.3013 161.426 29.3321L160.576 29.8574ZM159.461 24.7754C159.461 26.9087 159.813 28.6219 160.576 29.8574L161.426 29.3321C160.802 28.3214 160.461 26.8218 160.461 24.7754H159.461ZM159.476 23.2033L159.461 24.7707L160.461 24.7801L160.476 23.2127L159.476 23.2033ZM164.062 16.9072C162.628 16.9072 161.483 17.4563 160.698 18.5694C159.937 19.6509 159.551 21.2144 159.476 23.1891L160.475 23.2269C160.547 21.3344 160.916 19.9975 161.516 19.1454C162.094 18.3249 162.919 17.9072 164.062 17.9072V16.9072ZM167.522 18.7843C166.721 17.5413 165.549 16.9072 164.062 16.9072V17.9072C165.213 17.9072 166.067 18.3717 166.682 19.326L167.522 18.7843ZM181.187 26.4619H189.272V25.4619H181.187V26.4619ZM181.687 31.0449V25.9619H180.687V31.0449H181.687ZM190.737 30.5449H181.187V31.5449H190.737V30.5449ZM191.237 35V31.0449H190.237V35H191.237ZM176.045 35.5H190.737V34.5H176.045V35.5ZM175.545 13.6719V35H176.545V13.6719H175.545ZM190.767 13.1719H176.045V14.1719H190.767V13.1719ZM191.267 17.6416V13.6719H190.267V17.6416H191.267ZM181.187 18.1416H190.767V17.1416H181.187V18.1416ZM181.687 22.1387V17.6416H180.687V22.1387H181.687ZM189.272 21.6387H181.187V22.6387H189.272V21.6387ZM189.772 25.9619V22.1387H188.772V25.9619H189.772ZM204.333 29.3311C204.333 28.4451 204.011 27.7067 203.344 27.1807L202.725 27.9658C203.123 28.2797 203.333 28.7131 203.333 29.3311H204.333ZM203.391 31.2779C204.023 30.8088 204.333 30.1384 204.333 29.3311H203.333C203.333 29.8518 203.15 30.2117 202.795 30.475L203.391 31.2779ZM201.079 31.9258C201.996 31.9258 202.784 31.7286 203.391 31.2779L202.795 30.475C202.416 30.7568 201.862 30.9258 201.079 30.9258V31.9258ZM197.863 30.9812C198.59 31.6484 199.703 31.9258 201.079 31.9258V30.9258C199.799 30.9258 198.993 30.6611 198.539 30.2443L197.863 30.9812ZM196.814 28.0859C196.814 29.3078 197.131 30.31 197.863 30.9812L198.539 30.2443C198.089 29.8316 197.814 29.1493 197.814 28.0859H196.814ZM192.158 28.5859H197.314V27.5859H192.158V28.5859ZM193.638 31.5397C192.989 30.5493 192.658 29.4038 192.658 28.0859H191.658C191.658 29.5806 192.036 30.9204 192.802 32.0883L193.638 31.5397ZM196.587 33.9056C195.257 33.317 194.284 32.5243 193.638 31.5397L192.802 32.0883C193.572 33.2619 194.709 34.1684 196.182 34.82L196.587 33.9056ZM201.079 34.793C199.411 34.793 197.917 34.4941 196.587 33.9056L196.182 34.82C197.655 35.4717 199.29 35.793 201.079 35.793V34.793ZM206.563 33.2976C205.272 34.275 203.463 34.793 201.079 34.793V35.793C203.598 35.793 205.646 35.2465 207.167 34.095L206.563 33.2976ZM208.475 29.3018C208.475 31.0209 207.837 32.3338 206.563 33.2976L207.167 34.095C208.706 32.9298 209.475 31.3131 209.475 29.3018H208.475ZM205.268 24.2418C207.444 25.4956 208.475 27.1746 208.475 29.3018H209.475C209.475 26.7609 208.201 24.7778 205.767 23.3754L205.268 24.2418ZM201.732 22.7539C203.185 23.2208 204.361 23.7181 205.268 24.2416L205.768 23.3756C204.78 22.8053 203.533 22.2822 202.038 21.8018L201.732 22.7539ZM198.492 21.2993C199.15 21.7981 200.249 22.2778 201.732 22.7539L202.038 21.8018C200.571 21.3306 199.61 20.8923 199.096 20.5025L198.492 21.2993ZM197.415 19.4141C197.415 20.1676 197.828 20.7956 198.492 21.2993L199.096 20.5025C198.588 20.1175 198.415 19.7543 198.415 19.4141H197.415ZM198.41 17.4709C197.764 17.963 197.415 18.6207 197.415 19.4141H198.415C198.415 18.9575 198.598 18.5849 199.016 18.2665L198.41 17.4709ZM200.889 16.7607C199.901 16.7607 199.057 16.9785 198.41 17.4709L199.016 18.2665C199.434 17.9482 200.04 17.7607 200.889 17.7607V16.7607ZM203.384 17.6067C202.737 17.0253 201.886 16.7607 200.889 16.7607V17.7607C201.708 17.7607 202.297 17.9747 202.715 18.3503L203.384 17.6067ZM204.348 20C204.348 19.022 204.044 18.2001 203.384 17.6067L202.715 18.3503C203.12 18.714 203.348 19.2397 203.348 20H204.348ZM208.975 19.5H203.848V20.5H208.975V19.5ZM207.548 16.813C208.163 17.7358 208.475 18.7927 208.475 20H209.475C209.475 18.6096 209.112 17.3569 208.38 16.2583L207.548 16.813ZM204.924 14.6552C206.063 15.1674 206.931 15.888 207.548 16.813L208.38 16.2583C207.649 15.1618 206.627 14.3248 205.335 13.7432L204.924 14.6552ZM201.006 13.8789C202.479 13.8789 203.782 14.1414 204.924 14.6552L205.335 13.7432C204.045 13.1633 202.599 12.8789 201.006 12.8789V13.8789ZM196.943 14.5977C198.135 14.1217 199.487 13.8789 201.006 13.8789V12.8789C199.38 12.8789 197.9 13.139 196.572 13.6689L196.943 14.5977ZM194.233 16.5458C194.857 15.7273 195.751 15.0736 196.943 14.5977L196.572 13.6689C195.245 14.1989 194.191 14.9514 193.438 15.9396L194.233 16.5458ZM193.303 19.3701C193.303 18.2932 193.614 17.3583 194.233 16.5458L193.438 15.9396C192.68 16.9337 192.303 18.0837 192.303 19.3701H193.303ZM197.169 24.517C194.516 23.214 193.303 21.4934 193.303 19.3701H192.303C192.303 21.9929 193.853 24.0028 196.728 25.4146L197.169 24.517ZM200.389 25.7955C199.063 25.3504 197.992 24.924 197.17 24.5176L196.727 25.4141C197.604 25.8475 198.72 26.2902 200.07 26.7435L200.389 25.7955ZM203.344 27.1807C202.74 26.7041 201.735 26.2476 200.389 25.7955L200.07 26.7435C201.4 27.1899 202.265 27.6025 202.725 27.9658L203.344 27.1807Z" fill="black"/>
</g>
</g>
</svg>
